<?xml version="1.0" encoding="UTF-8" standalone="no"?>
<!-- Created with Inkscape (http://www.inkscape.org/) -->

<svg
   xmlns:dc="http://purl.org/dc/elements/1.1/"
   xmlns:cc="http://creativecommons.org/ns#"
   xmlns:rdf="http://www.w3.org/1999/02/22-rdf-syntax-ns#"
   xmlns:svg="http://www.w3.org/2000/svg"
   xmlns="http://www.w3.org/2000/svg"
   version="1.1"
   width="150"
   height="100"
   id="svg5624">
  <defs
     id="defs5626" />
  <metadata
     id="metadata5629">
    <rdf:RDF>
      <cc:Work
         rdf:about="">
        <dc:format>image/svg+xml</dc:format>
        <dc:type
           rdf:resource="http://purl.org/dc/dcmitype/StillImage" />
        <dc:title></dc:title>
      </cc:Work>
    </rdf:RDF>
  </metadata>
  <g
     transform="translate(0,-952.36218)"
     id="layer1">
    <g
       transform="matrix(1.1671642,0,0,1.1671642,-158.21921,284.40442)"
       id="g6208">
      <path
         d="m 152.94643,585.21932 0,37.99107 4.01786,0 0,-11.07143 c 4.39493,-9.97346 15.98384,-7.65911 18.03571,0 l 0,11.07143 3.92857,0 0,-11.07143 c 0,-5.16224 -5.81018,-10.84821 -12.5,-10.84821 -4.04025,0 -7.71842,2.50123 -9.46428,3.88393 l 0,-19.95536 z"
         id="path5681"
         style="fill:#0d9b0d;fill-opacity:1;stroke:none" />
      <path
         d="m 152.94643,627.18361 0,17.85714 4.01786,0 0,-17.85714 z"
         id="path5683"
         style="fill:#0d9b0d;fill-opacity:1;stroke:none" />
      <path
         d="m 175,627.18361 0,17.85714 3.92857,0 0,-17.85714 z"
         id="path5685"
         style="fill:#0d9b0d;fill-opacity:1;stroke:none" />
      <path
         d="m 191.07143,623.21039 0,-21.91964 -4.10714,0 0,21.91964 z"
         id="path5687"
         style="fill:#0d9b0d;fill-opacity:1;stroke:none" />
      <path
         d="m 191.07143,627.18361 -4.10714,0 0,6.96429 c 0,3.57605 2.76853,10.89285 13.03571,10.89285 3.79005,0 7.74866,-1.28263 9.86607,-4.91071 0.98287,2.35114 2.31022,4.46924 6.11607,4.91071 l 0,-3.83928 c -1.1456,0.0607 -3.03571,-0.77478 -3.03571,-2.41072 l 0,-11.60714 -4.01786,0 0,10.08929 c 0,0.59687 -5.51389,4.16479 -8.88393,4.01785 -3.67846,0.12682 -8.97321,-3.36551 -8.97321,-6.9256 z"
         id="path5689"
         style="fill:#0d9b0d;fill-opacity:1;stroke:none" />
      <path
         d="m 208.92857,601.29075 0,21.91964 4.01786,0 0,-21.91964 z"
         id="path5691"
         style="fill:#0d9b0d;fill-opacity:1;stroke:none" />
      <path
         d="m 233.65625,601.28125 c -7.40141,0 -12.08083,5.46493 -12.6875,10.84375 l 0,11.09375 -5,0 0,3.96875 5,0 0,8.5 c 0,3.30053 6.69562,9.34375 12.6875,9.34375 5.66712,0 7.11655,-1.85029 11,-5.3125 l -1.625,-2.59375 c -2.74269,2.05054 -4.85187,3.84446 -9.5,4.15625 -3.48277,0.20976 -8.71875,-3.85668 -8.71875,-6.3125 l 0,-7.78125 12.375,0 c 5.83926,0 9.26937,-6.54095 9.5,-12.34375 0,-6.76753 -4.79838,-13.5625 -13.03125,-13.5625 z m -0.375,4.03125 c 6.43137,0.21742 9.75,4.80638 9.75,9.59375 -0.88811,6.75364 -3.51599,7.66269 -6.21875,8.3125 l -12,0 0,-11.09375 c 2.58562,-6.4012 6.33405,-6.63396 8.46875,-6.8125 z"
         id="path5695"
         style="fill:#0d9b0d;fill-opacity:1;stroke:none" />
    </g>
  </g>
</svg>
