<?xml version="1.0" encoding="UTF-8" standalone="no"?>
<!-- Created with Inkscape (http://www.inkscape.org/) -->

<svg
   xmlns:dc="http://purl.org/dc/elements/1.1/"
   xmlns:cc="http://creativecommons.org/ns#"
   xmlns:rdf="http://www.w3.org/1999/02/22-rdf-syntax-ns#"
   xmlns:svg="http://www.w3.org/2000/svg"
   xmlns="http://www.w3.org/2000/svg"
   version="1.1"
   width="100"
   height="100"
   id="svg2"
   xml:space="preserve"><metadata
     id="metadata8"><rdf:RDF><cc:Work
         rdf:about=""><dc:format>image/svg+xml</dc:format><dc:type
           rdf:resource="http://purl.org/dc/dcmitype/StillImage" /><dc:title></dc:title></cc:Work></rdf:RDF></metadata><defs
     id="defs6" /><g
     transform="matrix(1.25,0,0,-1.25,0,100)"
     id="g10"><path
       d="M 44.637614,76.775484 C 41.594321,76.750879 38.548045,76.56646 35.65591,76.341728 30.237093,75.919041 24.886238,75.340205 20.160413,73.821467 15.53716,72.336233 15.220849,67.681901 14.992754,62.543856 14.78862,57.941872 15.765615,51.701495 17.318573,48.716068 c 1.867987,-3.588494 6.906864,-3.190037 11.2477,-3.978572 0.02779,-1.147804 0.03342,-1.847196 0.134622,-2.856796 -4.599743,-0.42179 -12.785822,-0.11277 -14.94209,-2.026681 -2.156985,-1.913904 -1.270181,-8.751366 1.615362,-9.565029 3.918624,-1.107119 9.88789,0.65901 13.394032,0.02234 -1.708844,-5.90137 -2.693793,-11.34693 -4.50207,-17.447309 -0.641508,-2.164314 -1.783957,-4.4665634 -1.854672,-6.4539642 -0.07021,-1.9777125 2.023176,-2.5674681 3.619604,-2.789489 2.335871,-0.3239093 7.298738,-0.2446969 8.061846,1.2713487 1.657839,3.2950961 1.126864,7.7170245 2.318343,11.3000455 l 8.248809,-0.16453 c 1.712579,-3.52331 2.050611,-10.4484203 5.182615,-12.1825122 1.743395,-0.9654473 7.832405,-0.8343354 9.026576,0.5683684 0.461277,0.5426697 0.808579,1.7532348 0.665589,2.6249603 -1.242035,7.5437065 -6.109652,15.8739135 -7.381302,23.3255115 4.816168,0.688026 12.419432,-1.255195 14.00727,1.136736 1.589635,2.39223 0.611148,8.83034 -2.415562,10.260531 -3.835884,1.811598 -9.25781,-0.285978 -13.655779,1.084386 -0.04459,0.536062 -0.206413,1.188786 -0.0374,1.82476 6.813532,-0.05234 14.549017,0.420291 16.303178,5.706111 1.986297,5.988801 1.196861,16.643002 -1.996765,21.126824 -2.487655,3.493679 -8.861151,4.714174 -14.283977,5.115323 -1.789912,0.132039 -3.610909,0.171809 -5.436885,0.157055 z m 1.607884,-6.498835 c 2.948329,0.0093 6.028997,-0.106837 9.669727,-0.441233 1.96476,-0.180699 4.791938,-0.368842 5.578979,-1.794845 1.145412,-2.070056 1.235752,-9.181233 0.142092,-11.494492 -0.672169,-1.418821 -3.310291,-2.357826 -5.018084,-2.714702 -2.648295,-0.555205 -5.967863,-0.489993 -9.10884,-0.568367 -8.694531,-0.213278 -24.3148,-2.13437 -26.41414,0.91986 -2.10018,3.054826 -3.686673,11.744268 -0.0299,13.872657 1.924671,1.120283 6.596654,1.274937 9.482766,1.450831 6.222635,0.378227 10.783532,0.754799 15.697419,0.770291 z M 29.471172,66.746784 c -2.954368,-0.03926 -5.749225,-2.574433 -4.748861,-6.753105 0.149795,-2.71949 4.403204,-5.018985 7.605656,-3.52986 3.414097,1.587538 3.295038,6.826392 0.463671,9.131273 -0.985105,0.801706 -2.164408,1.167053 -3.320466,1.151692 z m 21.134304,-0.02234 c -3.292157,-0.11931 -5.950276,-2.463565 -5.878118,-6.409093 0.01373,-0.760715 0.889645,-1.811 1.308741,-2.198686 1.854374,-1.719762 6.717209,-2.332401 8.79474,0.194451 2.59116,3.150251 -0.465463,8.388507 -3.903787,8.413337 -0.107442,8.15e-4 -0.215372,0.0037 -0.321576,0 z"
       id="path14"
       style="fill:#0d9b0d;fill-opacity:1;fill-rule:evenodd;stroke:none" /></g></svg>