<?xml version="1.0" encoding="UTF-8" standalone="no"?>
<!-- Created with Inkscape (http://www.inkscape.org/) -->

<svg
   xmlns:dc="http://purl.org/dc/elements/1.1/"
   xmlns:cc="http://creativecommons.org/ns#"
   xmlns:rdf="http://www.w3.org/1999/02/22-rdf-syntax-ns#"
   xmlns:svg="http://www.w3.org/2000/svg"
   xmlns="http://www.w3.org/2000/svg"
   xmlns:sodipodi="http://sodipodi.sourceforge.net/DTD/sodipodi-0.dtd"
   xmlns:inkscape="http://www.inkscape.org/namespaces/inkscape"
   width="250"
   height="100"
   id="svg6236"
   version="1.1"
   inkscape:version="0.48.4 r9939"
   sodipodi:docname="sonos.svg">
  <defs
     id="defs6238" />
  <sodipodi:namedview
     id="base"
     pagecolor="#ffffff"
     bordercolor="#666666"
     borderopacity="1.0"
     inkscape:pageopacity="0.0"
     inkscape:pageshadow="2"
     inkscape:zoom="0.7"
     inkscape:cx="841.41748"
     inkscape:cy="407.00378"
     inkscape:document-units="px"
     inkscape:current-layer="layer1"
     showgrid="false"
     inkscape:window-width="1855"
     inkscape:window-height="1056"
     inkscape:window-x="65"
     inkscape:window-y="24"
     inkscape:window-maximized="1" />
  <metadata
     id="metadata6241">
    <rdf:RDF>
      <cc:Work
         rdf:about="">
        <dc:format>image/svg+xml</dc:format>
        <dc:type
           rdf:resource="http://purl.org/dc/dcmitype/StillImage" />
        <dc:title></dc:title>
      </cc:Work>
    </rdf:RDF>
  </metadata>
  <g
     inkscape:label="Calque 1"
     inkscape:groupmode="layer"
     id="layer1"
     transform="translate(0,-952.36218)">
    <g
       id="g6784"
       transform="translate(-185.22506,474.70721)"
       style="stroke:none;fill:#0d9b0d;fill-opacity:1">
      <g
         id="text6255"
         style="font-size:22px;font-style:normal;font-weight:normal;line-height:125%;letter-spacing:0px;word-spacing:0px;fill:#0d9b0d;fill-opacity:1;stroke:none;font-family:Sans">
        <path
           id="path6264"
           style="font-size:64px;stroke:none;fill:#0d9b0d;fill-opacity:1"
           d="m 229.20944,505.19135 0,6.15625 c -2.39586,-1.1458 -4.65628,-1.99996 -6.78125,-2.5625 -2.12502,-0.56246 -4.1771,-0.84371 -6.15625,-0.84375 -3.43752,4e-5 -6.09376,0.6667 -7.96875,2 -1.85418,1.33337 -2.78126,3.2292 -2.78125,5.6875 -1e-5,2.06253 0.61457,3.62503 1.84375,4.6875 1.24999,1.04169 3.60415,1.88544 7.0625,2.53125 l 3.8125,0.78125 c 4.70831,0.89585 8.17705,2.47919 10.40625,4.75 2.24997,2.25001 3.37497,5.27085 3.375,9.0625 -3e-5,4.52084 -1.52087,7.94792 -4.5625,10.28125 -3.02086,2.33333 -7.45836,3.49999 -13.3125,3.5 -2.20835,-1e-5 -4.56251,-0.25001 -7.0625,-0.75 -2.47917,-0.5 -5.05209,-1.23959 -7.71875,-2.21875 l 0,-6.5 c 2.5625,1.4375 5.07291,2.52083 7.53125,3.25 2.45832,0.72917 4.87499,1.09375 7.25,1.09375 3.60415,0 6.38539,-0.70833 8.34375,-2.125 1.95831,-1.41666 2.93747,-3.4375 2.9375,-6.0625 -3e-5,-2.29166 -0.70836,-4.08332 -2.125,-5.375 -1.39586,-1.29165 -3.69794,-2.2604 -6.90625,-2.90625 l -3.84375,-0.75 c -4.70834,-0.93748 -8.11459,-2.40623 -10.21875,-4.40625 -2.10417,-1.99998 -3.15625,-4.78122 -3.15625,-8.34375 0,-4.12497 1.44791,-7.37496 4.34375,-9.75 2.91666,-2.37496 6.92707,-3.56246 12.03125,-3.5625 2.18748,4e-5 4.41664,0.19796 6.6875,0.59375 2.27081,0.39588 4.59372,0.98962 6.96875,1.78125"
           inkscape:connector-curvature="0" />
        <path
           id="path6266"
           style="font-size:64px;stroke:none;fill:#0d9b0d;fill-opacity:1"
           d="m 260.80319,507.94135 c -4.58335,4e-5 -8.22918,1.70837 -10.9375,5.125 -2.68751,3.4167 -4.03126,8.07294 -4.03125,13.96875 -1e-5,5.87501 1.34374,10.52084 4.03125,13.9375 2.70832,3.41667 6.35415,5.125 10.9375,5.125 4.58331,0 8.2083,-1.70833 10.875,-5.125 2.68746,-3.41666 4.03121,-8.06249 4.03125,-13.9375 -4e-5,-5.89581 -1.34379,-10.55205 -4.03125,-13.96875 -2.6667,-3.41663 -6.29169,-5.12496 -10.875,-5.125 m 0,-5.125 c 6.54164,4e-5 11.7708,2.19796 15.6875,6.59375 3.91662,4.37503 5.87496,10.25003 5.875,17.625 -4e-5,7.35418 -1.95838,13.22917 -5.875,17.625 -3.9167,4.375 -9.14586,6.56249 -15.6875,6.5625 -6.56252,-1e-5 -11.81251,-2.1875 -15.75,-6.5625 -3.91667,-4.37499 -5.875,-10.24999 -5.875,-17.625 0,-7.37497 1.95833,-13.24997 5.875,-17.625 3.93749,-4.39579 9.18748,-6.59371 15.75,-6.59375"
           inkscape:connector-curvature="0" />
        <path
           id="path6270"
           style="font-size:64px;stroke:none;fill:#0d9b0d;fill-opacity:1"
           d="m 359.05319,507.94135 c -4.58335,4e-5 -8.22918,1.70837 -10.9375,5.125 -2.68751,3.4167 -4.03126,8.07294 -4.03125,13.96875 -10e-6,5.87501 1.34374,10.52084 4.03125,13.9375 2.70832,3.41667 6.35415,5.125 10.9375,5.125 4.58331,0 8.2083,-1.70833 10.875,-5.125 2.68746,-3.41666 4.03121,-8.06249 4.03125,-13.9375 -4e-5,-5.89581 -1.34379,-10.55205 -4.03125,-13.96875 -2.6667,-3.41663 -6.29169,-5.12496 -10.875,-5.125 m 0,-5.125 c 6.54164,4e-5 11.7708,2.19796 15.6875,6.59375 3.91662,4.37503 5.87496,10.25003 5.875,17.625 -4e-5,7.35418 -1.95838,13.22917 -5.875,17.625 -3.9167,4.375 -9.14586,6.56249 -15.6875,6.5625 -6.56252,-1e-5 -11.81251,-2.1875 -15.75,-6.5625 -3.91667,-4.37499 -5.875,-10.24999 -5.875,-17.625 0,-7.37497 1.95833,-13.24997 5.875,-17.625 3.93749,-4.39579 9.18748,-6.59371 15.75,-6.59375"
           inkscape:connector-curvature="0" />
        <path
           id="path6272"
           style="font-size:64px;stroke:none;fill:#0d9b0d;fill-opacity:1"
           d="m 418.45944,505.19135 0,6.15625 c -2.39586,-1.1458 -4.65628,-1.99996 -6.78125,-2.5625 -2.12502,-0.56246 -4.1771,-0.84371 -6.15625,-0.84375 -3.43752,4e-5 -6.09376,0.6667 -7.96875,2 -1.85418,1.33337 -2.78126,3.2292 -2.78125,5.6875 -10e-6,2.06253 0.61457,3.62503 1.84375,4.6875 1.24999,1.04169 3.60415,1.88544 7.0625,2.53125 l 3.8125,0.78125 c 4.70831,0.89585 8.17705,2.47919 10.40625,4.75 2.24997,2.25001 3.37497,5.27085 3.375,9.0625 -3e-5,4.52084 -1.52087,7.94792 -4.5625,10.28125 -3.02086,2.33333 -7.45836,3.49999 -13.3125,3.5 -2.20835,-1e-5 -4.56251,-0.25001 -7.0625,-0.75 -2.47917,-0.5 -5.05209,-1.23959 -7.71875,-2.21875 l 0,-6.5 c 2.5625,1.4375 5.07291,2.52083 7.53125,3.25 2.45832,0.72917 4.87499,1.09375 7.25,1.09375 3.60415,0 6.38539,-0.70833 8.34375,-2.125 1.95831,-1.41666 2.93747,-3.4375 2.9375,-6.0625 -3e-5,-2.29166 -0.70836,-4.08332 -2.125,-5.375 -1.39586,-1.29165 -3.69794,-2.2604 -6.90625,-2.90625 l -3.84375,-0.75 c -4.70834,-0.93748 -8.11459,-2.40623 -10.21875,-4.40625 -2.10417,-1.99998 -3.15625,-4.78122 -3.15625,-8.34375 0,-4.12497 1.44791,-7.37496 4.34375,-9.75 2.91666,-2.37496 6.92707,-3.56246 12.03125,-3.5625 2.18748,4e-5 4.41664,0.19796 6.6875,0.59375 2.27081,0.39588 4.59372,0.98962 6.96875,1.78125"
           inkscape:connector-curvature="0" />
      </g>
      <path
         inkscape:connector-curvature="0"
         id="path6274"
         d="m 297.93067,550.63185 -7.14909,0 0,-47.66062 31.89166,31.89165 0,-30.73737 7.13047,0 0,48.36808 -31.89166,-31.89166 z"
         style="fill:#0d9b0d;stroke:none;fill-opacity:1" />
    </g>
  </g>
</svg>
