<?xml version="1.0" encoding="UTF-8" standalone="no"?>
<!-- Created with Inkscape (http://www.inkscape.org/) -->

<svg
   xmlns:dc="http://purl.org/dc/elements/1.1/"
   xmlns:cc="http://creativecommons.org/ns#"
   xmlns:rdf="http://www.w3.org/1999/02/22-rdf-syntax-ns#"
   xmlns:svg="http://www.w3.org/2000/svg"
   xmlns="http://www.w3.org/2000/svg"
   xmlns:sodipodi="http://sodipodi.sourceforge.net/DTD/sodipodi-0.dtd"
   xmlns:inkscape="http://www.inkscape.org/namespaces/inkscape"
   width="250"
   height="100"
   id="svg3792"
   version="1.1"
   inkscape:version="0.48.4 r9939"
   sodipodi:docname="tado.svg">
  <defs
     id="defs3794" />
  <sodipodi:namedview
     id="base"
     pagecolor="#ffffff"
     bordercolor="#666666"
     borderopacity="1.0"
     inkscape:pageopacity="0.0"
     inkscape:pageshadow="2"
     inkscape:zoom="1.979899"
     inkscape:cx="60.254485"
     inkscape:cy="7.169186"
     inkscape:document-units="px"
     inkscape:current-layer="layer1"
     showgrid="false"
     inkscape:window-width="1855"
     inkscape:window-height="1056"
     inkscape:window-x="65"
     inkscape:window-y="24"
     inkscape:window-maximized="1" />
  <metadata
     id="metadata3797">
    <rdf:RDF>
      <cc:Work
         rdf:about="">
        <dc:format>image/svg+xml</dc:format>
        <dc:type
           rdf:resource="http://purl.org/dc/dcmitype/StillImage" />
        <dc:title></dc:title>
      </cc:Work>
    </rdf:RDF>
  </metadata>
  <g
     inkscape:label="Calque 1"
     inkscape:groupmode="layer"
     id="layer1"
     transform="translate(0,-952.36218)">
    <g
       id="g4419"
       transform="matrix(0.04771217,0,0,0.04771217,110.95584,956.89994)"
       style="fill:#0d9b0d;fill-opacity:1;stroke:none">
      <path
         sodipodi:nodetypes="ccccccccccccccccc"
         inkscape:connector-curvature="0"
         id="path3859"
         d="m -1935.2629,194.58483 223.0754,-74.99051 0,374.96652 637.8271,0 0,188.08551 -638.1007,0 0,773.77685 c 8.3347,61.3194 42.2475,98.3837 105.8135,107.3287 l 194.6833,0 0,187.0031 -241.9643,0 c -158.9358,-15.6995 -271.0179,-122.7423 -283.9285,-287.6785 l 0,-780.35718 -149.2858,0 0,-188.21428 151.6072,0 z"
         style="fill:#0d9b0d;stroke:none;stroke-width:1px;stroke-linecap:butt;stroke-linejoin:miter;stroke-opacity:1;fill-opacity:1" />
      <path
         id="path3861"
         d="m -1000.3125,493.5625 0,189.09375 387.03125,0 c 59.50486,5.1039 96.80058,45.04275 100,99.25 l 0,160.46875 -281.71875,0 c -170.16664,6.37434 -414.9827,117.5855 -429.2812,395 -5.404,274.3724 209.0189,430.309 453.56245,432.8438 139.5889,-3.5878 205.35038,-53.7559 258.4375,-111.9063 l 0,92.1875 226.40625,0 0,-979.75 c -18.75138,-170.19952 -143.82161,-268.35352 -297.25,-277 l -417.1875,-0.1875 z m 213.53125,639.1563 274.625,0 0,240.875 c -7.57616,99.2523 -65.13762,205.166 -260.09375,207.5937 -111.43455,-3.4087 -224.77688,-55.7936 -227.28125,-223.25 -2.22955,-114.4934 70.72942,-209.7666 212.75,-225.2187 z"
         style="fill:#0d9b0d;stroke:none;stroke-width:1px;stroke-linecap:butt;stroke-linejoin:miter;stroke-opacity:1;fill-opacity:1"
         inkscape:connector-curvature="0" />
      <path
         id="path4376"
         d="m 686.59375,118.625 0.375,488.28125 C 635.20076,566.54322 542.06239,495.33683 351.0625,494.5 c -414.294185,6.93079 -555.76824,328.42819 -561.6875,648.2812 6.33746,285.6253 135.381927,636.1199 564.1875,644.9376 342.76128,0.9006 554.37845,-276.9927 560,-639.6563 l 0,-1029.4375 -226.96875,0 z M 354.5625,682.65625 c 260.35476,12.14268 328.33393,272.48217 331.34375,459.62495 -1.29758,202.9837 -91.46369,454.19 -333.875,458.3438 C 183.63924,1597.4083 25.583825,1482.4649 16.59375,1143.9688 18.643986,949.06047 96.676519,692.35767 354.5625,682.65625 z"
         style="fill:#0d9b0d;stroke:none;stroke-width:1px;stroke-linecap:butt;stroke-linejoin:miter;stroke-opacity:1;fill-opacity:1"
         inkscape:connector-curvature="0" />
      <path
         id="path4400"
         d="m 1549.5625,493.75 c -366.2106,5.19961 -558.7571,288.08055 -559.625,639.4375 -0.61744,355.3373 181.1801,655.2317 563.6875,653.5625 408.4028,-5.3441 556.5177,-325.2834 561.375,-645.8125 0.5506,-244.35997 -101.0552,-638.92875 -565.4375,-647.1875 z m 0.7813,190.03125 c 198.8569,-1.89549 340.1332,192.97638 340.1562,469.09375 0.2432,239.8362 -133.1095,448.7292 -340.5,446.625 -228.0777,-0.5356 -338.119,-243.7004 -336.8125,-454.2812 0.2834,-280.73952 154.5406,-461.32579 337.1563,-461.43755 z"
         style="fill:#0d9b0d;stroke:none;stroke-width:1px;stroke-linecap:butt;stroke-linejoin:miter;stroke-opacity:1;fill-opacity:1"
         inkscape:connector-curvature="0" />
      <path
         id="path4405"
         d="m 2375,116.65625 c -166.8689,0 -302.1562,135.58037 -302.1562,302.84375 -1e-4,167.26338 135.2873,302.875 302.1562,302.875 166.8689,0 302.1562,-135.61162 302.1562,-302.875 0,-167.26338 -135.2873,-302.84375 -302.1562,-302.84375 z m 0,77.125 c 125.053,0 226.4375,101.06019 226.4375,225.71875 0,124.65856 -101.3845,225.71875 -226.4375,225.71875 -125.053,0 -226.4375,-101.06019 -226.4375,-225.71875 0,-124.65856 101.3845,-225.71875 226.4375,-225.71875 z"
         style="fill:#0d9b0d;fill-opacity:1;stroke:none"
         inkscape:connector-curvature="0" />
    </g>
  </g>
</svg>
