<?xml version="1.0" encoding="UTF-8" standalone="no"?>
<!-- Generator: Adobe Illustrator 18.0.0, SVG Export Plug-In . SVG Version: 6.00 Build 0)  -->

<svg
   xmlns:dc="http://purl.org/dc/elements/1.1/"
   xmlns:cc="http://creativecommons.org/ns#"
   xmlns:rdf="http://www.w3.org/1999/02/22-rdf-syntax-ns#"
   xmlns:svg="http://www.w3.org/2000/svg"
   xmlns="http://www.w3.org/2000/svg"
   xmlns:xlink="http://www.w3.org/1999/xlink"
   xmlns:sodipodi="http://sodipodi.sourceforge.net/DTD/sodipodi-0.dtd"
   xmlns:inkscape="http://www.inkscape.org/namespaces/inkscape"
   version="1.1"
   id="Calque_1"
   x="0px"
   y="0px"
   viewBox="0 0 150 100"
   enable-background="new 0 0 1030 594"
   xml:space="preserve"
   inkscape:version="0.48.4 r9939"
   width="100%"
   height="100%"
   sodipodi:docname="uCtrl_green.svg"><metadata
     id="metadata33"><rdf:RDF><cc:Work
         rdf:about=""><dc:format>image/svg+xml</dc:format><dc:type
           rdf:resource="http://purl.org/dc/dcmitype/StillImage" /><dc:title /></cc:Work></rdf:RDF></metadata><defs
     id="defs31"><defs
       id="defs11"><rect
         height="594"
         width="1030"
         id="SVGID_1_"
         x="0"
         y="0" /></defs><clipPath
       id="SVGID_2_"><use
         id="use15"
         overflow="visible"
         xlink:href="#SVGID_1_"
         style="overflow:visible"
         x="0"
         y="0"
         width="1030"
         height="594" /></clipPath><clipPath
       id="SVGID_2_-4"><use
         id="use15-1"
         overflow="visible"
         xlink:href="#SVGID_1_"
         style="overflow:visible"
         x="0"
         y="0"
         width="1030"
         height="594" /></clipPath></defs><sodipodi:namedview
     pagecolor="#ffffff"
     bordercolor="#666666"
     borderopacity="1"
     objecttolerance="10"
     gridtolerance="10"
     guidetolerance="10"
     inkscape:pageopacity="0"
     inkscape:pageshadow="2"
     inkscape:window-width="1855"
     inkscape:window-height="1056"
     id="namedview29"
     showgrid="false"
     inkscape:zoom="2.392233"
     inkscape:cx="166.14415"
     inkscape:cy="61.184719"
     inkscape:window-x="65"
     inkscape:window-y="24"
     inkscape:window-maximized="1"
     inkscape:current-layer="Calque_1" /><g
     id="g3828"
     style="fill:#0d9b0d;fill-opacity:1;stroke:none"
     transform="matrix(0.12636924,0,0,0.12636924,10.475076,12.853367)"><path
       id="polygon3"
       d="M 274.1875,19.3125 19.8125,244.5 l 26.78125,30.3125 228.71875,-202.5 196,173.09375 L 498,215.1875 276.3125,19.3125 l -1,1.09375 -1.125,-1.09375 z m -178.28125,32.375 0,96 63.90625,-57.78125 0.59375,-38.21875 -64.5,0 z m 179.40625,54.5 L 95.90625,265 l 0,237.5 81.6875,0 0,51.90625 0,14.1875 14.09375,-1.78125 49.8125,-6.3125 10.90625,-1.40625 0,-11 0,-45.59375 2.4375,0 c 1.34314,0.05 2.65625,0.0937 3.84375,0.0937 1.96192,0 3.87861,-0.0336 5.78125,-0.0937 l 190.03125,0 0,-237.59375 L 275.3125,106.1875 z M 240,278 l 0,129.90625 c 0,21.2 9.7875,38.90625 32.1875,38.90625 31.4,0 45.90625,-23.925 45.90625,-49.125 l 0,-113.375 49.8125,-6.21875 0,205.59375 -47.09375,3.125 0,-25.90625 -0.8125,0 c -16.9,22.8 -33.3875,29 -61.1875,29 -6.3,0 -12.9125,-0.40625 -18.8125,-2.40625 l 0,60.5 -49.8125,6.3125 0,-270 L 240,278 z"
       style="fill:#0d9b0d;fill-opacity:1;stroke:none"
       inkscape:connector-curvature="0" /><path
       clip-path="url(#SVGID_2_)"
       d="m 648.7,480.7 c -11.4,6.7 -31.8,10.2 -43.9,10.2 -83.2,0 -138.5,-62.4 -138.5,-140.9 0,-77.7 56.5,-140.9 136.9,-140.9 12.9,0 32.6,3.1 43.6,9.8 l 8.6,62.4 c -14.1,-11.4 -32.2,-19.2 -54.5,-19.2 -47.5,0 -80.4,42.4 -80.4,87.9 0,50.2 37.7,87.9 82.8,87.9 21.6,0 38.5,-11 52.6,-22.4 l -7.2,65.2 z"
       id="path21"
       inkscape:connector-curvature="0"
       style="fill:#0d9b0d;fill-opacity:1;stroke:none" /><path
       clip-path="url(#SVGID_2_)"
       d="m 702.8,250.8 49.8,-22.4 v 56.9 h 45.1 v 43.2 h -45.1 v 85.1 c 0,19.2 8.2,31.8 37.3,31.8 5.5,0 11.8,-0.4 17.3,-0.8 L 795,489.4 c -4.7,1.2 -13.3,1.6 -19.6,1.6 -42,0 -72.6,-22.4 -72.6,-66.7 v -95.7 h -30.6 l 11,-43.2 h 19.6 v -34.6 z"
       id="path23"
       inkscape:connector-curvature="0"
       style="fill:#0d9b0d;fill-opacity:1;stroke:none" /><path
       clip-path="url(#SVGID_2_)"
       d="m 866.8,316.7 h 0.8 c 17.3,-31 39.6,-37.3 74.2,-37.7 l -17.3,53 c -38.1,0 -54.9,22.4 -54.9,56.9 v 95.7 l -49.8,3.1 V 285.3 l 47.1,-4.7 v 36.1 z"
       id="path25"
       inkscape:connector-curvature="0"
       style="fill:#0d9b0d;fill-opacity:1;stroke:none" /><polygon
       clip-path="url(#SVGID_2_)"
       points="1001.4,484.6 951.6,487.8 951.6,215.5 1001.4,209.2 "
       id="polygon27"
       style="fill:#0d9b0d;fill-opacity:1;stroke:none" /></g></svg>