<?xml version="1.0" encoding="UTF-8" standalone="no"?>
<!-- Created with Inkscape (http://www.inkscape.org/) -->

<svg
   xmlns:dc="http://purl.org/dc/elements/1.1/"
   xmlns:cc="http://creativecommons.org/ns#"
   xmlns:rdf="http://www.w3.org/1999/02/22-rdf-syntax-ns#"
   xmlns:svg="http://www.w3.org/2000/svg"
   xmlns="http://www.w3.org/2000/svg"
   xmlns:sodipodi="http://sodipodi.sourceforge.net/DTD/sodipodi-0.dtd"
   xmlns:inkscape="http://www.inkscape.org/namespaces/inkscape"
   id="svg3929"
   version="1.1"
   inkscape:version="0.48.4 r9939"
   width="100"
   height="100"
   sodipodi:docname="WeMo.svg">
  <metadata
     id="metadata3935">
    <rdf:RDF>
      <cc:Work
         rdf:about="">
        <dc:format>image/svg+xml</dc:format>
        <dc:type
           rdf:resource="http://purl.org/dc/dcmitype/StillImage" />
        <dc:title />
      </cc:Work>
    </rdf:RDF>
  </metadata>
  <defs
     id="defs3933" />
  <sodipodi:namedview
     pagecolor="#ffffff"
     bordercolor="#666666"
     borderopacity="1"
     objecttolerance="10"
     gridtolerance="10"
     guidetolerance="10"
     inkscape:pageopacity="0"
     inkscape:pageshadow="2"
     inkscape:window-width="1855"
     inkscape:window-height="1056"
     id="namedview3931"
     showgrid="false"
     inkscape:zoom="3.0641294"
     inkscape:cx="-16.956151"
     inkscape:cy="18.197811"
     inkscape:window-x="1985"
     inkscape:window-y="24"
     inkscape:window-maximized="1"
     inkscape:current-layer="svg3929" />
  <path
     style="fill:#0d9b0d;fill-opacity:1;stroke:none"
     d="m 20.275342,3.0945885 c -9.518138,0 -17.1807536,7.6626175 -17.1807536,17.1807565 l 0,59.449312 c 0,9.518138 7.6626156,17.180755 17.1807536,17.180755 l 59.449308,0 c 9.518143,0 17.180762,-7.662617 17.180762,-17.180755 l 0,-59.449311 c 0,-9.51814 -7.662614,-17.1807575 -17.180757,-17.1807575 l -59.449313,0 z M 69.806671,19.152737 c 4.621513,0 8.074359,1.398576 11.10892,4.500189 2.864503,2.927795 4.420938,6.862921 4.158523,10.493928 l -0.09762,1.405698 -12.270571,0.156187 -12.270572,0.156186 0.819988,1.639979 c 2.884897,5.788173 11.445639,6.850469 15.853147,1.971881 0.632933,-0.700575 1.28508,-1.269031 1.444746,-1.269031 0.622011,0 4.080432,2.648395 4.080432,3.123769 0,0.701783 -2.826071,3.515733 -4.539231,4.51971 -0.782913,0.458818 -2.232049,1.114389 -3.211631,1.454512 -1.733831,0.601996 -5.983158,1.003803 -7.555628,0.71261 -1.625131,-0.300944 -4.587819,-1.504304 -6.10112,-2.469735 -4.637978,-2.958865 -7.315577,-8.842718 -6.4135,-14.086266 1.266332,-7.360862 7.29648,-12.309623 14.994111,-12.309623 z m -39.652396,0.292852 2.733302,0.08785 2.733304,0.08786 0.156187,9.693461 c 0.13944,8.659216 0.21912,9.794885 0.722369,10.562259 1.830314,2.790933 6.182248,2.708318 7.868007,-0.146425 0.577462,-0.977911 0.636574,-1.775432 0.780943,-10.581781 l 0.156187,-9.52751 2.655206,0 2.655209,0 0,10.152262 0,10.152267 -0.859037,1.757123 c -2.883037,5.870667 -10.286907,7.721208 -15.511483,3.875425 l -1.386172,-1.015226 -1.366654,1.044511 c -2.488601,1.899597 -6.405327,2.506656 -9.498225,1.474036 -3.504171,-1.169925 -6.194664,-4.388577 -6.823493,-8.170618 -0.212522,-1.278212 -0.307841,-5.412574 -0.253807,-10.6794 l 0.08786,-8.59038 2.811398,0 2.811394,0 0.156187,9.693461 c 0.13944,8.659216 0.21912,9.794886 0.722374,10.562259 1.56136,2.380826 4.919,2.77944 6.940635,0.819989 0.597494,-0.579114 1.226764,-1.558177 1.395936,-2.167116 0.169166,-0.60895 0.311442,-5.147537 0.312376,-10.093692 l 0,-8.990616 z m 39.603585,5.085897 c -1.925905,0.05275 -3.878435,0.660409 -5.652071,1.835217 -1.32831,0.879838 -3.026157,2.825861 -3.026157,3.4752 0,0.131926 4.016046,0.244045 8.922279,0.244045 l 8.922277,0 -0.566186,-0.96642 C 78.047626,28.588108 77.247561,27.654719 76.581358,27.05003 74.661757,25.307672 72.234033,24.463654 69.75786,24.531485 z m 0.06833,27.420874 c 3.355218,0 5.999587,0.747014 8.619662,2.440452 4.703836,3.040231 7.35285,8.760387 6.462307,13.959358 C 83.529792,76.399025 75.911717,81.844492 67.639551,80.691076 62.034639,79.909565 56.947445,75.74058 55.329928,70.59738 54.460609,67.833235 54.727899,63.035854 55.876593,60.650114 58.563738,55.069151 63.561148,51.95236 69.826192,51.95236 z m -29.617271,0.419755 c 0.141842,-0.0018 0.287482,-0.004 0.42952,0 1.363566,0.03812 2.733728,0.346584 4.002334,0.927371 2.354893,1.078106 3.787207,2.482479 4.949228,4.841853 l 1.024988,2.069498 0,10.005837 0,10.005837 -2.655208,0 -2.655207,0 -0.156187,-9.586082 C 45.000728,61.575805 44.956834,61.006212 44.347921,60.191316 42.713568,58.004117 40.5015,57.377561 38.334658,58.483002 c -2.40322,1.226032 -2.381776,1.129107 -2.557587,12.046051 l -0.156187,9.693457 -2.655209,0 -2.655208,0 -0.156187,-9.586082 c -0.147681,-9.060635 -0.191554,-9.630224 -0.800476,-10.445117 -1.179284,-1.578185 -2.235945,-2.147597 -3.98281,-2.147597 -1.192962,0 -1.883247,0.195454 -2.635683,0.73214 -2.038486,1.453958 -2.091982,1.710045 -2.264737,12.075331 l -0.156187,9.371324 -2.577113,0.08785 -2.577113,0.09762 0,-10.093692 0,-10.083928 0.898084,-1.874265 c 1.084024,-2.256176 3.07329,-4.246645 5.193272,-5.203037 1.202228,-0.542361 2.137346,-0.702848 4.060909,-0.702848 2.702547,0 4.46407,0.581108 6.530638,2.157352 l 1.073796,0.81999 1.395936,-1.073794 c 1.679732,-1.282167 3.768558,-1.95456 5.896121,-1.981651 z m 29.617277,5.066373 c -2.25356,0.01278 -2.90035,0.136817 -4.275665,0.849273 -3.364958,1.743125 -5.22256,4.61024 -5.22256,8.053478 0,3.740477 2.268512,6.980272 5.886361,8.414664 2.290309,0.908058 5.97664,0.728179 8.180389,-0.400229 6.752855,-3.457753 6.685644,-12.646264 -0.11714,-16.038625 -1.565296,-0.780571 -2.137066,-0.891616 -4.451374,-0.87856 z"
     id="rect4582"
     inkscape:connector-curvature="0" />
</svg>
