<?xml version="1.0" encoding="UTF-8" standalone="no"?>
<!-- Created with Inkscape (http://www.inkscape.org/) -->

<svg
   xmlns:dc="http://purl.org/dc/elements/1.1/"
   xmlns:cc="http://creativecommons.org/ns#"
   xmlns:rdf="http://www.w3.org/1999/02/22-rdf-syntax-ns#"
   xmlns:svg="http://www.w3.org/2000/svg"
   xmlns="http://www.w3.org/2000/svg"
   version="1.1"
   width="100%"
   height="100%"
   viewBox="0 0 900 594"
   id="Calque_1"
   xml:space="preserve"><metadata
   id="metadata33"><rdf:RDF><cc:Work
       rdf:about=""><dc:format>image/svg+xml</dc:format><dc:type
         rdf:resource="http://purl.org/dc/dcmitype/StillImage" /><dc:title></dc:title></cc:Work></rdf:RDF></metadata><defs
   id="defs31" />
<polygon
   points="454.5,502.5 454.5,264.9 275.3,106.2 95.9,265 95.9,502.5 "
   id="polygon3"
   style="fill:#0d9b0d" />
<polygon
   points="276.3,19.3 275.3,20.4 274.2,19.3 19.8,244.5 46.6,274.8 275.3,72.3 471.3,245.4 498,215.2 "
   id="polygon5"
   style="fill:#0d9b0d" />
<polygon
   points="159.8,89.9 95.9,147.7 95.9,51.7 160.4,51.7 "
   id="polygon7"
   style="fill:#0d9b0d" />




<path
   d="m 299.99399,569.38464 0,-57.61718 -117.1875,0 0,-48.04688 124.21875,-181.83594 46.09375,0 0,181.64063 35.54687,0 0,48.24219 -35.54687,0 0,57.61718 z m 0,-105.85937 0,-97.85156 -65.82031,97.85156 z"
   id="path3771"
   style="font-size:400px;font-style:normal;font-weight:bold;line-height:125%;letter-spacing:0px;word-spacing:0px;fill:#ffffff;fill-opacity:1;stroke:#0d9b0d;stroke-width:12;stroke-miterlimit:4;stroke-opacity:1;font-family:Sans;-inkscape-font-specification:Sans Bold" /><path
   d="m 507.80649,281.88464 c 27.73424,2.9e-4 49.4139,9.89611 65.03906,29.6875 18.6196,23.43774 27.92949,62.30489 27.92969,116.60157 -2e-4,54.16675 -9.3752,93.099 -28.125,116.79687 -15.49495,19.53126 -37.10951,29.29687 -64.84375,29.29688 -27.86467,-10e-6 -50.32558,-10.70963 -67.38281,-32.12891 -17.05732,-21.41922 -25.58596,-59.60278 -25.58594,-114.55078 -2e-5,-53.90606 9.37497,-92.7081 28.125,-116.40625 15.49473,-19.53097 37.10929,-29.29659 64.84375,-29.29688 z m 0,45.50782 c -6.64073,2.4e-4 -12.5652,2.11612 -17.77344,6.34765 -5.20842,4.232 -9.24487,11.81663 -12.10937,22.75391 -3.77612,14.19291 -5.66414,38.08611 -5.66407,71.67969 -7e-5,33.59385 1.69264,56.67326 5.07813,69.23828 3.38533,12.56516 7.64965,20.93104 12.79297,25.09765 5.14313,4.16671 11.03505,6.25004 17.67578,6.25 6.64051,4e-5 12.56498,-2.11584 17.77344,-6.34765 5.2082,-4.23172 9.24465,-11.81635 12.10937,-22.75391 3.7759,-14.06242 5.66392,-37.89052 5.66406,-71.48437 -1.4e-4,-33.59358 -1.69285,-56.67298 -5.07812,-69.23829 -3.38556,-12.56488 -7.64987,-20.96331 -12.79297,-25.19531 -5.14335,-4.23153 -11.03527,-6.34741 -17.67578,-6.34765 z"
   id="path3773"
   style="font-size:400px;font-style:normal;font-weight:bold;line-height:125%;letter-spacing:0px;word-spacing:0px;fill:#ffffff;fill-opacity:1;stroke:#0d9b0d;stroke-width:12;stroke-miterlimit:4;stroke-opacity:1;font-family:Sans;-inkscape-font-specification:Sans Bold" /><g
   id="text3036"
   style="font-size:40px;font-style:normal;font-weight:normal;line-height:125%;letter-spacing:0px;word-spacing:0px;fill:#ffffff;fill-opacity:1;stroke:#0d9b0d;stroke-width:12;stroke-miterlimit:4;stroke-opacity:1;font-family:Sans"><path
     d="m 759.18231,571.82605 -54.88281,0 0,-206.83594 c -20.05217,18.75019 -43.68496,32.61736 -70.89844,41.60156 l 0,-49.80468 c 14.32287,-4.68728 29.88275,-13.57399 46.67969,-26.66016 16.79678,-13.08568 28.32021,-28.35259 34.57031,-45.80078 l 44.53125,0 z"
     id="path3809"
     style="font-size:400px;font-weight:bold;fill:#ffffff;stroke:#0d9b0d;-inkscape-font-specification:Sans Bold" /></g></svg>