<?xml version="1.0" encoding="UTF-8" standalone="no"?>
<!-- Created with Inkscape (http://www.inkscape.org/) -->

<svg
   xmlns:dc="http://purl.org/dc/elements/1.1/"
   xmlns:cc="http://creativecommons.org/ns#"
   xmlns:rdf="http://www.w3.org/1999/02/22-rdf-syntax-ns#"
   xmlns:svg="http://www.w3.org/2000/svg"
   xmlns="http://www.w3.org/2000/svg"
   version="1.1"
   width="100%"
   height="100%"
   viewBox="0 0 900 594"
   id="Calque_1"
   xml:space="preserve"><metadata
   id="metadata33"><rdf:RDF><cc:Work
       rdf:about=""><dc:format>image/svg+xml</dc:format><dc:type
         rdf:resource="http://purl.org/dc/dcmitype/StillImage" /><dc:title></dc:title></cc:Work></rdf:RDF></metadata><defs
   id="defs31" />
<polygon
   points="454.5,502.5 454.5,264.9 275.3,106.2 95.9,265 95.9,502.5 "
   id="polygon3"
   style="fill:#0d9b0d;stroke:none" />
<polygon
   points="276.3,19.3 275.3,20.4 274.2,19.3 19.8,244.5 46.6,274.8 275.3,72.3 471.3,245.4 498,215.2 "
   id="polygon5"
   style="fill:#0d9b0d" />
<polygon
   points="159.8,89.9 95.9,147.7 95.9,51.7 160.4,51.7 "
   id="polygon7"
   style="fill:#0d9b0d" />




<path
   d="m 299.99399,569.38464 0,-57.61718 -117.1875,0 0,-48.04688 124.21875,-181.83594 46.09375,0 0,181.64063 35.54687,0 0,48.24219 -35.54687,0 0,57.61718 z m 0,-105.85937 0,-97.85156 -65.82031,97.85156 z"
   id="path3771"
   style="font-size:400px;font-style:normal;font-weight:bold;line-height:125%;letter-spacing:0px;word-spacing:0px;fill:#ffffff;fill-opacity:1;stroke:#0d9b0d;stroke-width:12;stroke-miterlimit:4;stroke-opacity:1;font-family:Sans;-inkscape-font-specification:Sans Bold" /><path
   d="m 507.80649,281.88464 c 27.73424,2.9e-4 49.4139,9.89611 65.03906,29.6875 18.6196,23.43774 27.92949,62.30489 27.92969,116.60157 -2e-4,54.16675 -9.3752,93.099 -28.125,116.79687 -15.49495,19.53126 -37.10951,29.29687 -64.84375,29.29688 -27.86467,-10e-6 -50.32558,-10.70963 -67.38281,-32.12891 -17.05732,-21.41922 -25.58596,-59.60278 -25.58594,-114.55078 -2e-5,-53.90606 9.37497,-92.7081 28.125,-116.40625 15.49473,-19.53097 37.10929,-29.29659 64.84375,-29.29688 z m 0,45.50782 c -6.64073,2.4e-4 -12.5652,2.11612 -17.77344,6.34765 -5.20842,4.232 -9.24487,11.81663 -12.10937,22.75391 -3.77612,14.19291 -5.66414,38.08611 -5.66407,71.67969 -7e-5,33.59385 1.69264,56.67326 5.07813,69.23828 3.38533,12.56516 7.64965,20.93104 12.79297,25.09765 5.14313,4.16671 11.03505,6.25004 17.67578,6.25 6.64051,4e-5 12.56498,-2.11584 17.77344,-6.34765 5.2082,-4.23172 9.24465,-11.81635 12.10937,-22.75391 3.7759,-14.06242 5.66392,-37.89052 5.66406,-71.48437 -1.4e-4,-33.59358 -1.69285,-56.67298 -5.07812,-69.23829 -3.38556,-12.56488 -7.64987,-20.96331 -12.79297,-25.19531 -5.14335,-4.23153 -11.03527,-6.34741 -17.67578,-6.34765 z"
   id="path3773"
   style="font-size:400px;font-style:normal;font-weight:bold;line-height:125%;letter-spacing:0px;word-spacing:0px;fill:#ffffff;fill-opacity:1;stroke:#0d9b0d;stroke-width:12;stroke-miterlimit:4;stroke-opacity:1;font-family:Sans;-inkscape-font-specification:Sans Bold" /><g
   transform="translate(-19.581419,463.4689)"
   id="text2992"
   style="font-size:40px;font-style:normal;font-weight:normal;line-height:125%;letter-spacing:0px;word-spacing:0px;fill:#ffffff;fill-opacity:1;stroke:#0d9b0d;stroke-width:12;stroke-miterlimit:4;stroke-opacity:1;stroke-dasharray:none;font-family:Sans"><path
     d="m 649.81812,29.743866 54.6875,-5.664063 c 1.56242,12.369859 6.18481,22.168026 13.86718,29.394532 7.6822,7.226605 16.53636,10.839883 26.5625,10.839843 11.45821,4e-5 21.15872,-4.654904 29.10157,-13.964843 7.94255,-9.309834 11.9139,-23.339768 11.91406,-42.089844 -1.6e-4,-17.5780123 -3.93895,-30.761593 -11.81641,-39.550781 -7.87774,-8.788919 -18.13163,-13.183446 -30.76172,-13.183594 -15.7553,1.48e-4 -29.88289,6.966287 -42.38281,20.898437 l -44.53125,-6.445312 28.125,-149.023441 145.11719,0 0,51.36719 -103.51563,0 -8.59375,48.632813 c 12.23949,-6.119603 24.73948,-9.179495 37.5,-9.179687 24.34881,1.92e-4 44.98681,8.854349 61.91407,26.5625 16.92688,17.708481 25.39041,40.690228 25.39062,68.9453125 -2.1e-4,23.5677805 -6.83614,44.5964055 -20.50781,63.0859375 -18.61997,25.260424 -44.46629,37.890624 -77.53906,37.890624 -26.43238,0 -47.98184,-7.09635 -64.64844,-21.289062 C 663.03423,72.777751 653.0733,53.702249 649.81812,29.743866 z"
     id="path2997"
     style="font-size:400px;font-weight:bold;fill:#ffffff;stroke:#0d9b0d;stroke-width:12;stroke-miterlimit:4;stroke-opacity:1;stroke-dasharray:none;-inkscape-font-specification:Sans Bold" /></g><text
   x="514.55615"
   y="110.99167"
   id="text3770"
   xml:space="preserve"
   style="font-size:40px;font-style:normal;font-weight:normal;line-height:125%;letter-spacing:0px;word-spacing:0px;fill:#000000;fill-opacity:1;stroke:none;font-family:Sans"><tspan
     x="514.55615"
     y="110.99167"
     id="tspan3772" /></text>

</svg>