<?xml version="1.0" encoding="UTF-8" standalone="no"?>
<!-- Created with Inkscape (http://www.inkscape.org/) -->

<svg
   xmlns:dc="http://purl.org/dc/elements/1.1/"
   xmlns:cc="http://creativecommons.org/ns#"
   xmlns:rdf="http://www.w3.org/1999/02/22-rdf-syntax-ns#"
   xmlns:svg="http://www.w3.org/2000/svg"
   xmlns="http://www.w3.org/2000/svg"
   version="1.1"
   width="100%"
   height="100%"
   viewBox="0 0 900 594"
   id="Calque_1"
   xml:space="preserve"><metadata
   id="metadata33"><rdf:RDF><cc:Work
       rdf:about=""><dc:format>image/svg+xml</dc:format><dc:type
         rdf:resource="http://purl.org/dc/dcmitype/StillImage" /><dc:title></dc:title></cc:Work></rdf:RDF></metadata><defs
   id="defs31" />
<polygon
   points="454.5,502.5 454.5,264.9 275.3,106.2 95.9,265 95.9,502.5 "
   id="polygon3"
   style="fill:#0d9b0d;stroke:none" />
<polygon
   points="276.3,19.3 275.3,20.4 274.2,19.3 19.8,244.5 46.6,274.8 275.3,72.3 471.3,245.4 498,215.2 "
   id="polygon5"
   style="fill:#0d9b0d" />
<polygon
   points="159.8,89.9 95.9,147.7 95.9,51.7 160.4,51.7 "
   id="polygon7"
   style="fill:#0d9b0d" />




<path
   d="m 299.99399,569.38464 0,-57.61718 -117.1875,0 0,-48.04688 124.21875,-181.83594 46.09375,0 0,181.64063 35.54687,0 0,48.24219 -35.54687,0 0,57.61718 z m 0,-105.85937 0,-97.85156 -65.82031,97.85156 z"
   id="path3771"
   style="font-size:400px;font-style:normal;font-weight:bold;line-height:125%;letter-spacing:0px;word-spacing:0px;fill:#ffffff;fill-opacity:1;stroke:#0d9b0d;stroke-width:12;stroke-miterlimit:4;stroke-opacity:1;font-family:Sans;-inkscape-font-specification:Sans Bold" /><path
   d="m 507.80649,281.88464 c 27.73424,2.9e-4 49.4139,9.89611 65.03906,29.6875 18.6196,23.43774 27.92949,62.30489 27.92969,116.60157 -2e-4,54.16675 -9.3752,93.099 -28.125,116.79687 -15.49495,19.53126 -37.10951,29.29687 -64.84375,29.29688 -27.86467,-10e-6 -50.32558,-10.70963 -67.38281,-32.12891 -17.05732,-21.41922 -25.58596,-59.60278 -25.58594,-114.55078 -2e-5,-53.90606 9.37497,-92.7081 28.125,-116.40625 15.49473,-19.53097 37.10929,-29.29659 64.84375,-29.29688 z m 0,45.50782 c -6.64073,2.4e-4 -12.5652,2.11612 -17.77344,6.34765 -5.20842,4.232 -9.24487,11.81663 -12.10937,22.75391 -3.77612,14.19291 -5.66414,38.08611 -5.66407,71.67969 -7e-5,33.59385 1.69264,56.67326 5.07813,69.23828 3.38533,12.56516 7.64965,20.93104 12.79297,25.09765 5.14313,4.16671 11.03505,6.25004 17.67578,6.25 6.64051,4e-5 12.56498,-2.11584 17.77344,-6.34765 5.2082,-4.23172 9.24465,-11.81635 12.10937,-22.75391 3.7759,-14.06242 5.66392,-37.89052 5.66406,-71.48437 -1.4e-4,-33.59358 -1.69285,-56.67298 -5.07812,-69.23829 -3.38556,-12.56488 -7.64987,-20.96331 -12.79297,-25.19531 -5.14335,-4.23153 -11.03527,-6.34741 -17.67578,-6.34765 z"
   id="path3773"
   style="font-size:400px;font-style:normal;font-weight:bold;line-height:125%;letter-spacing:0px;word-spacing:0px;fill:#ffffff;fill-opacity:1;stroke:#0d9b0d;stroke-width:12;stroke-miterlimit:4;stroke-opacity:1;font-family:Sans;-inkscape-font-specification:Sans Bold" /><g
   transform="translate(97.907093,458.39297)"
   id="text3770"
   style="font-size:40px;font-style:normal;font-weight:normal;line-height:125%;letter-spacing:0px;word-spacing:0px;fill:#ffffff;fill-opacity:1;stroke:#0d9b0d;stroke-width:12;stroke-miterlimit:4;stroke-opacity:1;stroke-dasharray:none;font-family:Sans"><path
     d="m 717.48584,-105.21927 -53.125,5.859376 c -1.30223,-10.937276 -4.68765,-19.010186 -10.15625,-24.218746 -5.46888,-5.2081 -12.56523,-7.81226 -21.28906,-7.8125 -11.58865,2.4e-4 -21.38682,5.20857 -29.39453,15.625 -8.0079,10.41688 -13.05347,32.096545 -15.13672,65.039059 13.67178,-16.145656 30.66396,-24.218564 50.97656,-24.21875 22.91652,1.86e-4 42.54541,8.724135 58.88672,26.171875 16.34094,17.448059 24.51151,39.9740778 24.51172,67.578125 -2.1e-4,29.296938 -8.59395,52.799518 -25.78125,70.507812 -17.18767,17.708339 -39.25796,26.562499 -66.21094,26.562499 -28.90634,0 -52.66933,-11.23046 -71.28906,-33.691405 -18.61982,-22.460886 -27.92971,-59.277256 -27.92969,-110.449219 -2e-5,-52.473766 9.70049,-90.299246 29.10156,-113.476566 19.40098,-23.1768 44.59627,-34.76533 75.58594,-34.76562 21.74465,2.9e-4 39.74593,6.08752 54.00391,18.26172 14.25762,12.17473 23.33964,29.8505 27.24609,53.02734 z M 593.07178,14.507294 c -8e-5,17.83862 4.10148,31.608137 12.30468,41.308593 8.20303,9.700567 17.57802,14.550822 28.125,14.550782 10.15613,4e-5 18.61966,-3.97131 25.39063,-11.914063 6.77068,-7.942648 10.1561,-20.963468 10.15625,-39.0625 -1.5e-4,-18.61968124 -3.64598,-32.258991 -10.9375,-40.917969 -7.2918,-8.658713 -16.40638,-12.988135 -27.34375,-12.988281 -10.54698,1.46e-4 -19.46624,4.134256 -26.75781,12.402344 -7.29175,8.268354 -10.93758,20.475373 -10.9375,36.621094 z"
     id="path3775"
     style="font-size:400px;font-weight:bold;fill:#ffffff;stroke:#0d9b0d;stroke-width:12;stroke-miterlimit:4;stroke-opacity:1;stroke-dasharray:none;-inkscape-font-specification:Sans Bold" /></g></svg>